<svg version="1.2" xmlns="http://www.w3.org/2000/svg" viewBox="0 0 1024 1024" width="1024" height="1024">
	<title>New Project</title>
	<style>
		.s0 { fill: #ff7a45 } 
	</style>
	<path id="Guruu" class="s0" aria-label="Guruu"  d="m201.1 313.8c-75.5 0-124.9 51.8-124.9 125.3 0 73.9 49.7 125.6 125.3 125.6 64.4 0 102.5-39.8 117.3-75.9v-66.5h-128.2v49.3h69c-10.2 21.4-27.7 32.6-51.5 32.6-40.5 0-62.3-22.8-62.3-65.1 0-37.8 21-62 55.7-62 18.9 0 32.9 7.4 40.6 20.4h73.8c-9.8-51.5-52.5-83.7-114.8-83.7zm349.4 52.8h-69v105.4c0 22.8-12.6 36.1-32.5 36.1-19.6 0-32.6-13.4-32.6-36.1v-105.4h-68.2v114.2c0 51.7 28.3 84 73.8 84 27.7 0 48.3-13 59.5-29.8v28h69zm107.8 110.6c0-30.1 15.7-39.2 44.1-39.2h19.2v-73.1c-26.2 0-48.6 15-63.3 36.4v-34.7h-68.6v196.4h68.6zm288.7-110.6l-68.9-0.1v105.4c0 22.8-12.6 36.1-32.6 36.1-19.6 0-32.5-13.3-32.5-36.1v-105.4h-68.3v114.2c0 51.7 28.4 84 73.9 84 27.6 0 48.3-13 59.5-29.8v28h68.9z"/>
	<path id="Learn. Gain. Retain." class="s0" aria-label="Learn. Gain. Retain."  d="m287.8 599.8v35.2h20.8l-0.1-7.5h-10.9v-27.7zm37.1 14.6c2.3 0 4.2 1.3 4.2 3.8h-8.6c0.4-2.5 2.1-3.8 4.4-3.8zm13.7 10.9h-10.5c-0.5 1.2-1.6 2.2-3.5 2.2-2.2 0-4-1.3-4.2-4.5h18.6c0.1-0.8 0.1-1.6 0.1-2.3 0-8.7-5.8-14.1-14.1-14.1-8.4 0-14.3 5.4-14.3 14.4 0 8.9 6 14.4 14.3 14.4 7 0 12.2-4.4 13.6-10.1zm3-4.3c0 8.9 5.3 14.4 11.9 14.4 3.9 0 6.8-1.8 8.2-4.3v3.9h9.9v-28h-9.9v3.9c-1.4-2.5-4.2-4.3-8.2-4.3-6.6 0-11.9 5.4-11.9 14.4zm20.1 0c0 3.8-2.3 5.8-5.1 5.8-2.7 0-5-2.1-5-5.8 0-3.8 2.3-5.8 5-5.8 2.8 0 5.1 2 5.1 5.8zm25.2 1.8c0-4.3 2.3-5.6 6.3-5.6h2.8v-10.5c-3.8 0-6.9 2.2-9.1 5.2v-4.9h-9.8v28h9.8zm31.7 12.3h9.8v-16.4c0-7.4-4-11.9-10.5-11.9-4 0-7 1.8-8.6 4.2v-4h-9.8v28.1h9.8v-15.1c0-3.2 1.8-5.2 4.7-5.2 2.8 0 4.6 2 4.6 5.2zm25.6-4.6c0-2.9-2.2-5.1-5.6-5.1-3.5 0-5.8 2.2-5.8 5.1 0 2.8 2.3 5 5.8 5 3.4 0 5.6-2.2 5.6-5zm30.9-31c-10.9 0-17.9 7.4-17.9 17.9 0 10.6 7.1 18 17.9 18 9.2 0 14.6-5.7 16.8-10.9v-9.5h-18.3v7.1h9.8c-1.4 3-3.9 4.6-7.3 4.6-5.9 0-8.9-3.2-8.9-9.3 0-5.4 3-8.8 7.9-8.8 2.7 0 4.7 1 5.8 2.9h10.6c-1.4-7.4-7.5-12-16.4-12zm19.5 21.6c0 8.9 5.4 14.4 12 14.4 4 0 6.8-1.8 8.3-4.3v3.9h9.8v-28h-9.8v3.9c-1.5-2.5-4.3-4.3-8.3-4.3-6.6 0-12 5.4-12 14.4zm20.3 0c0 3.8-2.4 5.8-5.2 5.8-2.7 0-5.1-2.1-5.1-5.8 0-3.8 2.4-5.8 5.1-5.8 2.8 0 5.2 2 5.2 5.8zm15.3 14h9.8v-28h-9.8zm5-30.7c3.4 0 5.7-2.2 5.7-5 0-2.8-2.3-5.1-5.7-5.1-3.5 0-5.7 2.3-5.7 5.1 0 2.8 2.2 5 5.7 5zm29.5 30.7h9.8v-16.4c0-7.3-4-11.9-10.5-11.9-4 0-6.9 1.8-8.5 4.2v-4h-9.8v28.1h9.8v-15.1c0-3.2 1.7-5.1 4.7-5.1 2.8 0 4.5 1.9 4.5 5.1zm25.7-4.6c0-2.9-2.2-5.1-5.7-5.1-3.5 0-5.7 2.2-5.7 5.1 0 2.8 2.2 5 5.7 5 3.5 0 5.7-2.2 5.7-5zm32.8-18.8c0 2.4-1.3 3.7-4 3.7h-4.8v-7.3h4.8c2.7 0 4 1.4 4 3.6zm-18.6-11.8v35.2h9.8v-13h1l7 13h11l-8-13.7c5.3-1.6 7.8-5.6 7.8-10.2 0-6.3-4.5-11.3-13.2-11.3zm45.6 14.6c2.3 0 4.3 1.3 4.3 3.8h-8.7c0.4-2.5 2.1-3.8 4.4-3.8zm13.6 10.9h-10.4c-0.6 1.2-1.6 2.2-3.5 2.2-2.2 0-3.9-1.3-4.2-4.5h18.6c0.1-0.8 0.2-1.6 0.2-2.3 0-8.7-5.9-14.1-14.2-14.1-8.4 0-14.3 5.5-14.3 14.4 0 8.9 6 14.4 14.3 14.4 7 0 12.2-4.3 13.5-10.1zm6.2-0.9c0 8 4.5 10.6 10.7 10.6h4.3v-8.3h-2.8c-1.7 0-2.4-0.7-2.4-2.2v-9.4h5.2v-8.1h-5.2v-6.8h-9.8v6.8h-3.5v8.1h3.5zm17.9-3.4c0 9 5.3 14.4 11.9 14.4 4 0 6.9-1.7 8.3-4.2v3.9h9.8v-28.1h-9.8v3.9c-1.4-2.5-4.3-4.2-8.3-4.2-6.6 0-11.9 5.4-11.9 14.3zm20.2 0c0 3.8-2.4 5.9-5.1 5.9-2.8 0-5.1-2.1-5.1-5.9 0-3.8 2.3-5.8 5.1-5.8 2.7 0 5.1 2.1 5.1 5.8zm15.4 14.1h9.8v-28.1h-9.8zm5-30.6c3.4 0 5.7-2.2 5.7-5 0-2.9-2.3-5.1-5.7-5.1-3.5 0-5.8 2.2-5.8 5.1 0 2.8 2.3 5 5.8 5zm29.5 30.6h9.8v-16.3c0-7.4-4.1-12-10.6-12-3.9 0-6.9 1.9-8.5 4.3v-4h-9.8v28h9.8v-15c0-3.3 1.8-5.2 4.7-5.2 2.8 0 4.6 1.9 4.6 5.2zm25.7-4.7c0-2.8-2.3-5.1-5.7-5.1-3.5 0-5.8 2.3-5.8 5.1 0 2.9 2.3 5.1 5.8 5.1 3.4 0 5.7-2.2 5.7-5.1z"/>
</svg>